<svg xmlns="http://www.w3.org/2000/svg" width="900" height="600" viewBox="0 0 900 600">
<title>Uniform-price demand regimes</title>
<rect x="0" y="0" width="100%" height="100%" fill="white"/>
<g font-family="sans-serif" font-size="14" fill="black" stroke="black">
<line x1="90" y1="520" x2="840" y2="520" stroke-width="1.5"/>
<line x1="90" y1="520" x2="90" y2="50" stroke-width="1.5"/>
<polyline points="90.00,520.00 91.25,520.00 92.50,520.00 93.75,520.00 95.00,520.00 96.25,520.00 97.50,520.00 98.75,520.00 100.00,520.00 101.25,520.00 102.50,520.00 103.75,520.00 105.00,520.00 106.25,520.00 107.50,520.00 108.75,520.00 110.00,520.00 111.25,520.00 112.50,520.00 113.75,520.00 115.00,520.00 116.25,520.00 117.50,520.00 118.75,520.00 120.00,520.00 121.25,520.00 122.50,520.00 123.75,520.00 125.00,520.00 126.25,520.00 127.50,520.00 128.75,520.00 130.00,520.00 131.25,520.00 132.50,520.00 133.75,520.00 135.00,520.00 136.25,520.00 137.50,520.00 138.75,520.00 140.00,520.00 141.25,520.00 142.50,520.00 143.75,520.00 145.00,520.00 146.25,520.00 147.50,520.00 148.75,520.00 150.00,520.00 151.25,520.00 152.50,520.00 153.75,520.00 155.00,520.00 156.25,520.00 157.50,520.00 158.75,520.00 160.00,520.00 161.25,520.00 162.50,520.00 163.75,520.00 165.00,520.00 166.25,520.00 167.50,520.00 168.75,520.00 170.00,520.00 171.25,520.00 172.50,520.00 173.75,520.00 175.00,520.00 176.25,520.00 177.50,520.00 178.75,520.00 180.00,520.00 181.25,520.00 182.50,520.00 183.75,520.00 185.00,520.00 186.25,520.00 187.50,520.00 188.75,520.00 190.00,520.00 191.25,518.83 192.50,517.65 193.75,516.48 195.00,515.30 196.25,514.13 197.50,512.95 198.75,511.78 200.00,510.60 201.25,509.43 202.50,508.25 203.75,507.08 205.00,505.90 206.25,504.73 207.50,503.55 208.75,502.38 210.00,501.20 211.25,500.03 212.50,498.85 213.75,497.67 215.00,496.50 216.25,495.33 217.50,494.15 218.75,492.98 220.00,491.80 221.25,490.63 222.50,489.45 223.75,488.28 225.00,487.10 226.25,485.93 227.50,484.75 228.75,483.58 230.00,482.40 231.25,481.23 232.50,480.05 233.75,478.88 235.00,477.70 236.25,476.53 237.50,475.35 238.75,474.18 240.00,473.00 241.25,471.83 242.50,470.65 243.75,469.48 245.00,468.30 246.25,467.13 247.50,465.95 248.75,464.78 250.00,463.60 251.25,462.43 252.50,461.25 253.75,460.08 255.00,458.90 256.25,457.73 257.50,456.55 258.75,455.38 260.00,454.20 261.25,453.03 262.50,451.85 263.75,450.68 265.00,449.50 266.25,448.33 267.50,447.15 268.75,445.98 270.00,444.80 271.25,443.63 272.50,442.45 273.75,441.28 275.00,440.10 276.25,438.93 277.50,437.75 278.75,436.58 280.00,435.40 281.25,434.23 282.50,433.05 283.75,431.88 285.00,430.70 286.25,429.53 287.50,428.35 288.75,427.18 290.00,426.00 291.25,424.83 292.50,423.65 293.75,422.48 295.00,421.30 296.25,420.13 297.50,418.95 298.75,417.78 300.00,416.60 301.25,415.43 302.50,414.25 303.75,413.08 305.00,411.90 306.25,410.73 307.50,409.55 308.75,408.38 310.00,407.20 311.25,406.03 312.50,404.85 313.75,403.68 315.00,402.50 316.25,401.33 317.50,400.15 318.75,398.98 320.00,397.80 321.25,396.63 322.50,395.45 323.75,394.28 325.00,393.10 326.25,391.93 327.50,390.75 328.75,389.58 330.00,388.40 331.25,387.23 332.50,386.05 333.75,384.88 335.00,383.70 336.25,382.53 337.50,381.35 338.75,380.18 340.00,379.00 341.25,377.83 342.50,376.65 343.75,375.48 345.00,374.30 346.25,373.13 347.50,371.95 348.75,370.78 350.00,369.60 351.25,368.43 352.50,367.25 353.75,366.08 355.00,364.90 356.25,363.73 357.50,362.55 358.75,361.38 360.00,360.20 361.25,359.03 362.50,357.85 363.75,356.68 365.00,355.50 366.25,354.33 367.50,353.15 368.75,351.98 370.00,350.80 371.25,349.63 372.50,348.45 373.75,347.28 375.00,346.10 376.25,344.93 377.50,343.75 378.75,342.58 380.00,341.40 381.25,340.23 382.50,339.05 383.75,337.88 385.00,336.70 386.25,335.53 387.50,334.35 388.75,333.17 390.00,332.00 391.25,330.83 392.50,329.65 393.75,328.48 395.00,327.30 396.25,326.13 397.50,324.95 398.75,323.77 400.00,322.60 401.25,321.42 402.50,320.25 403.75,319.08 405.00,317.90 406.25,316.73 407.50,315.55 408.75,314.38 410.00,313.20 411.25,312.03 412.50,310.85 413.75,309.68 415.00,308.50 416.25,307.33 417.50,306.15 418.75,304.98 420.00,303.80 421.25,302.63 422.50,301.45 423.75,300.27 425.00,299.10 426.25,297.93 427.50,296.75 428.75,295.58 430.00,294.40 431.25,293.23 432.50,292.05 433.75,290.88 435.00,289.70 436.25,288.52 437.50,287.35 438.75,286.18 440.00,285.00 441.25,283.82 442.50,282.65 443.75,281.47 445.00,280.30 446.25,279.13 447.50,277.95 448.75,276.77 450.00,275.60 451.25,274.42 452.50,273.25 453.75,272.07 455.00,270.90 456.25,269.72 457.50,268.55 458.75,267.38 460.00,266.20 461.25,265.02 462.50,263.85 463.75,262.67 465.00,261.50 466.25,260.33 467.50,259.15 468.75,257.98 470.00,256.80 471.25,255.63 472.50,254.45 473.75,253.27 475.00,252.10 476.25,250.93 477.50,249.75 478.75,248.58 480.00,247.40 481.25,246.22 482.50,245.05 483.75,243.88 485.00,242.70 486.25,241.52 487.50,240.35 488.75,239.18 490.00,238.00 491.25,236.83 492.50,235.65 493.75,234.47 495.00,233.30 496.25,232.13 497.50,230.95 498.75,229.77 500.00,228.60 501.25,227.42 502.50,226.25 503.75,225.08 505.00,223.90 506.25,222.72 507.50,221.55 508.75,220.37 510.00,219.20 511.25,218.02 512.50,216.85 513.75,215.67 515.00,214.50 516.25,213.33 517.50,212.15 518.75,210.97 520.00,209.80 521.25,208.62 522.50,207.45 523.75,206.27 525.00,205.10 526.25,203.92 527.50,202.75 528.75,201.58 530.00,200.40 531.25,199.23 532.50,198.05 533.75,196.88 535.00,195.70 536.25,194.52 537.50,193.35 538.75,192.18 540.00,191.00 541.25,191.00 542.50,191.00 543.75,191.00 545.00,191.00 546.25,191.00 547.50,191.00 548.75,191.00 550.00,191.00 551.25,191.00 552.50,191.00 553.75,191.00 555.00,191.00 556.25,191.00 557.50,191.00 558.75,191.00 560.00,191.00 561.25,191.00 562.50,191.00 563.75,191.00 565.00,191.00 566.25,191.00 567.50,191.00 568.75,191.00 570.00,191.00 571.25,191.00 572.50,191.00 573.75,191.00 575.00,191.00 576.25,191.00 577.50,191.00 578.75,191.00 580.00,191.00 581.25,191.00 582.50,191.00 583.75,191.00 585.00,191.00 586.25,191.00 587.50,191.00 588.75,191.00 590.00,191.00 591.25,189.83 592.50,188.65 593.75,187.47 595.00,186.30 596.25,185.13 597.50,183.95 598.75,182.77 600.00,181.60 601.25,180.43 602.50,179.25 603.75,178.08 605.00,176.90 606.25,175.73 607.50,174.55 608.75,173.38 610.00,172.20 611.25,171.03 612.50,169.85 613.75,168.67 615.00,167.50 616.25,166.33 617.50,165.15 618.75,163.97 620.00,162.80 621.25,161.63 622.50,160.45 623.75,159.28 625.00,158.10 626.25,156.93 627.50,155.75 628.75,154.58 630.00,153.40 631.25,152.23 632.50,151.05 633.75,149.88 635.00,148.70 636.25,147.53 637.50,146.35 638.75,145.18 640.00,144.00 641.25,142.82 642.50,141.65 643.75,140.48 645.00,139.30 646.25,138.13 647.50,136.95 648.75,135.78 650.00,134.60 651.25,133.43 652.50,132.25 653.75,131.08 655.00,129.90 656.25,128.72 657.50,127.55 658.75,126.38 660.00,125.20 661.25,124.02 662.50,122.85 663.75,121.68 665.00,120.50 666.25,119.32 667.50,118.15 668.75,116.98 670.00,115.80 671.25,114.63 672.50,113.45 673.75,112.28 675.00,111.10 676.25,109.92 677.50,108.75 678.75,107.58 680.00,106.40 681.25,105.22 682.50,104.05 683.75,102.88 685.00,101.70 686.25,100.53 687.50,99.35 688.75,98.18 690.00,97.00 691.25,95.83 692.50,94.65 693.75,93.48 695.00,92.30 696.25,91.13 697.50,89.95 698.75,88.78 700.00,87.60 701.25,86.43 702.50,85.25 703.75,84.07 705.00,82.90 706.25,81.73 707.50,80.55 708.75,79.38 710.00,78.20 711.25,77.03 712.50,75.85 713.75,74.68 715.00,73.50 716.25,72.33 717.50,71.15 718.75,69.97 720.00,68.80 721.25,67.63 722.50,66.45 723.75,65.27 725.00,64.10 726.25,62.93 727.50,61.75 728.75,60.57 730.00,59.40 731.25,58.23 732.50,57.05 733.75,55.88 735.00,54.70 736.25,53.53 737.50,52.35 738.75,51.17 740.00,50.00 741.25,50.00 742.50,50.00 743.75,50.00 745.00,50.00 746.25,50.00 747.50,50.00 748.75,50.00 750.00,50.00 751.25,50.00 752.50,50.00 753.75,50.00 755.00,50.00 756.25,50.00 757.50,50.00 758.75,50.00 760.00,50.00 761.25,50.00 762.50,50.00 763.75,50.00 765.00,50.00 766.25,50.00 767.50,50.00 768.75,50.00 770.00,50.00 771.25,50.00 772.50,50.00 773.75,50.00 775.00,50.00 776.25,50.00 777.50,50.00 778.75,50.00 780.00,50.00 781.25,50.00 782.50,50.00 783.75,50.00 785.00,50.00 786.25,50.00 787.50,50.00 788.75,50.00 790.00,50.00 791.25,50.00 792.50,50.00 793.75,50.00 795.00,50.00 796.25,50.00 797.50,50.00 798.75,50.00 800.00,50.00 801.25,50.00 802.50,50.00 803.75,50.00 805.00,50.00 806.25,50.00 807.50,50.00 808.75,50.00 810.00,50.00 811.25,50.00 812.50,50.00 813.75,50.00 815.00,50.00 816.25,50.00 817.50,50.00 818.75,50.00 820.00,50.00 821.25,50.00 822.50,50.00 823.75,50.00 825.00,50.00 826.25,50.00 827.50,50.00 828.75,50.00 830.00,50.00 831.25,50.00 832.50,50.00 833.75,50.00 835.00,50.00 836.25,50.00 837.50,50.00 838.75,50.00 840.00,50.00" fill="none" stroke-width="2.5"/>
<text x="465.0" y="570" text-anchor="middle">d = (p_B-p_A)/tau</text>
<text x="28" y="285.0" transform="rotate(-90 28 285.0)" text-anchor="middle">q_A(d)</text>
<text x="830" y="70" text-anchor="end">diagnostic x_0=0.70, s=0.10</text>
<line x1="190.00" y1="520" x2="190.00" y2="50" stroke-width="1" stroke-dasharray="4 5"/>
<text x="190.00" y="544" text-anchor="middle">L</text>
<line x1="540.00" y1="520" x2="540.00" y2="50" stroke-width="1" stroke-dasharray="4 5"/>
<text x="540.00" y="544" text-anchor="middle">alpha</text>
<line x1="590.00" y1="520" x2="590.00" y2="50" stroke-width="1" stroke-dasharray="4 5"/>
<text x="590.00" y="544" text-anchor="middle">beta</text>
<line x1="740.00" y1="520" x2="740.00" y2="50" stroke-width="1" stroke-dasharray="4 5"/>
<text x="740.00" y="544" text-anchor="middle">U</text>
<line x1="84" y1="520.00" x2="90" y2="520.00" stroke-width="1"/>
<text x="78" y="525.00" text-anchor="end">0.00</text>
<line x1="84" y1="402.50" x2="90" y2="402.50" stroke-width="1"/>
<text x="78" y="407.50" text-anchor="end">0.25</text>
<line x1="84" y1="285.00" x2="90" y2="285.00" stroke-width="1"/>
<text x="78" y="290.00" text-anchor="end">0.50</text>
<line x1="84" y1="167.50" x2="90" y2="167.50" stroke-width="1"/>
<text x="78" y="172.50" text-anchor="end">0.75</text>
<line x1="84" y1="50.00" x2="90" y2="50.00" stroke-width="1"/>
<text x="78" y="55.00" text-anchor="end">1.00</text>
</g>
</svg>
